<svg width="47" height="36" viewBox="0 0 47 36" fill="none" xmlns="http://www.w3.org/2000/svg">
<path fill-rule="evenodd" clip-rule="evenodd" d="M29.6769 21.3092L29.7646 20.9588L32.3053 28.7562L31.9987 29.1943V29.1505L31.911 29.3257C24.5954 39.0507 9.08811 37.167 3.34952 27.2668C-2.73951 16.7534 3.43714 2.86689 15.3524 0.369942C16.5789 0.150913 17.8493 0.0194931 19.1197 0.0194931C24.7707 0.0194931 30.7283 2.47263 33.7509 7.42271L36.1164 0.983227H43.4758L37.9125 16.4467L41.5046 26.4345C41.8988 27.4421 42.994 28.0115 44.0015 27.7487L44.3082 27.6611L46.2794 34.2758L43.9139 34.8891C40.5408 35.7214 37.0802 34.013 35.8098 30.7713C35.5031 30.2018 35.1965 29.5886 34.9775 28.9315L33.6633 25.4708L33.5757 25.3394V25.2956L30.6407 16.4029C29.0199 11.4967 25.9972 9.13114 23.5879 8.16741C22.2737 7.55413 20.7843 7.24749 19.2073 7.24749C13.1183 7.24749 8.21199 12.11 8.21199 18.0676C8.21199 24.0252 13.1183 28.8877 19.2073 28.8877C24.1136 28.8877 28.2752 25.6898 29.6769 21.3092Z" fill="url(#paint0_linear_1_2620)"/>
<defs>
<linearGradient id="paint0_linear_1_2620" x1="1.0278" y1="0.518884" x2="44.8338" y2="0.518884" gradientUnits="userSpaceOnUse">
<stop stop-color="#7A5FFF"/>
<stop offset="1" stop-color="#00E824"/>
</linearGradient>
</defs>
</svg>
